<?xml version="1.0" standalone="no"?>
<!DOCTYPE svg PUBLIC "-//W3C//DTD SVG 20010904//EN"
 "http://www.w3.org/TR/2001/REC-SVG-20010904/DTD/svg10.dtd">
<svg version="1.0" xmlns="http://www.w3.org/2000/svg"
 width="184.000000pt" height="49.000000pt" viewBox="0 0 184.000000 49.000000"
 preserveAspectRatio="xMidYMid meet">

<g transform="translate(0.000000,49.000000) scale(0.100000,-0.100000)"
fill="#000000" stroke="none">
<path d="M153 443 c9 -2 23 -2 30 0 6 3 -1 5 -18 5 -16 0 -22 -2 -12 -5z"/>
<path d="M330 444 c36 -8 100 -9 100 -2 0 5 -26 7 -57 7 -32 -1 -51 -3 -43 -5z"/>
<path d="M403 350 c0 -41 2 -58 4 -37 2 20 2 54 0 75 -2 20 -4 3 -4 -38z"/>
<path d="M312 393 l67 -4 4 -57 3 -57 2 63 2 62 -72 -2 -73 -2 67 -3z"/>
<path d="M245 374 c48 -8 115 -9 115 -2 0 5 -30 7 -67 7 -38 -1 -59 -3 -48 -5z"/>
<path d="M222 343 l107 -4 4 -27 c4 -25 4 -24 6 6 l1 32 -112 -2 -113 -2 107
-3z"/>
<path d="M470 336 c0 -9 12 -16 33 -18 l32 -3 3 -97 c2 -77 6 -98 17 -98 11 0
15 21 17 98 l3 97 33 3 c20 2 32 9 32 18 0 11 -18 14 -85 14 -67 0 -85 -3 -85
-14z"/>
<path d="M710 234 c0 -105 2 -115 18 -112 15 3 17 18 20 116 3 107 2 112 -18
112 -19 0 -20 -6 -20 -116z"/>
<path d="M810 235 c0 -108 1 -115 20 -115 11 0 20 6 20 13 0 6 9 23 19 36 l18
24 29 -37 c18 -22 38 -36 52 -36 30 0 28 11 -9 46 -54 51 -54 58 -10 124 38
58 39 60 16 60 -17 0 -33 -16 -66 -67 l-44 -67 -3 67 c-3 59 -5 67 -22 67 -19
0 -20 -8 -20 -115z"/>
<path d="M1151 328 c-5 -13 -25 -63 -45 -112 -20 -49 -33 -92 -30 -95 2 -3 13
0 24 6 12 8 28 9 49 3 18 -5 44 -5 62 0 21 6 37 5 49 -3 11 -6 22 -9 25 -5 3
3 -14 55 -38 114 -35 88 -47 110 -65 112 -15 2 -25 -3 -31 -20z m59 -89 c25
-67 21 -79 -30 -79 -50 0 -55 12 -29 79 13 33 27 61 30 61 4 0 17 -27 29 -61z"/>
<path d="M1360 335 c0 -10 11 -15 35 -15 l35 0 0 -100 c0 -93 1 -100 20 -100
19 0 20 7 20 100 l0 100 35 0 c24 0 35 5 35 15 0 12 -17 15 -90 15 -73 0 -90
-3 -90 -15z"/>
<path d="M1603 265 c3 -72 7 -89 26 -109 27 -29 64 -37 103 -24 42 15 58 55
58 143 0 68 -2 75 -20 75 -18 0 -20 -7 -20 -79 0 -86 -12 -111 -54 -111 -42 0
-56 29 -56 113 0 70 -2 77 -20 77 -18 0 -19 -6 -17 -85z"/>
<path d="M240 323 c35 -2 68 -9 72 -16 5 -8 8 -6 8 6 0 15 -9 17 -72 15 l-73
-2 65 -3z"/>
<path d="M30 175 l0 -135 68 0 c61 0 72 4 120 36 100 67 90 112 -34 158 -44
15 -96 39 -116 52 l-38 24 0 -135z"/>
</g>
</svg>
