<svg xmlns="http://www.w3.org/2000/svg" xmlns:xlink="http://www.w3.org/1999/xlink" width="368" zoomAndPan="magnify" viewBox="0 0 276 72.749999" height="97" preserveAspectRatio="xMidYMid meet" version="1.0"><defs><clipPath id="6f97b05cdf"><path d="M 0.472656 24 L 41 24 L 41 68 L 0.472656 68 Z M 0.472656 24 " clip-rule="nonzero"/></clipPath><clipPath id="52fe370378"><path d="M 0.472656 6 L 63 6 L 63 68 L 0.472656 68 Z M 0.472656 6 " clip-rule="nonzero"/></clipPath></defs><path fill="#587b6c" d="M 91.167969 42.742188 L 82.253906 42.742188 L 82.253906 67.304688 L 76.253906 67.304688 L 76.253906 42.742188 L 67.339844 42.742188 L 67.339844 36.734375 L 91.167969 36.734375 Z M 91.167969 42.742188 " fill-opacity="1" fill-rule="nonzero"/><path fill="#587b6c" d="M 98.4375 36.792969 L 104.441406 36.792969 L 104.441406 67.304688 L 98.4375 67.304688 Z M 98.4375 36.792969 " fill-opacity="1" fill-rule="nonzero"/><path fill="#587b6c" d="M 136.878906 67.304688 L 128.957031 67.304688 L 121.613281 58.902344 L 117.710938 64.855469 L 117.710938 67.304688 L 111.710938 67.304688 L 111.710938 36.792969 L 117.710938 36.792969 L 117.710938 53.945312 L 128.957031 36.792969 L 136.003906 36.792969 L 124.996094 53.652344 Z M 136.878906 67.304688 " fill-opacity="1" fill-rule="nonzero"/><path fill="#587b6c" d="M 174.621094 67.304688 L 168.621094 67.304688 L 167.628906 64.855469 C 165.238281 66.429688 162.386719 67.304688 159.355469 67.304688 C 156.328125 67.304688 153.472656 66.429688 151.140625 64.855469 L 150.152344 67.304688 L 144.152344 67.304688 L 156.386719 36.792969 L 162.386719 36.792969 Z M 165.472656 59.546875 L 161.160156 48.8125 L 159.355469 44.320312 L 153.296875 59.546875 C 154.929688 60.890625 157.027344 61.707031 159.355469 61.707031 C 161.6875 61.707031 163.84375 60.890625 165.472656 59.546875 Z M 165.472656 59.546875 " fill-opacity="1" fill-rule="nonzero"/><path fill="#587b6c" d="M 205.71875 42.742188 L 196.804688 42.742188 L 196.804688 67.304688 L 190.804688 67.304688 L 190.804688 42.742188 L 181.890625 42.742188 L 181.890625 36.734375 L 205.71875 36.734375 Z M 205.71875 42.742188 " fill-opacity="1" fill-rule="nonzero"/><path fill="#587b6c" d="M 237.808594 36.734375 L 237.808594 54.878906 C 237.808594 61.761719 232.21875 67.304688 225.402344 67.304688 C 218.582031 67.304688 212.992188 61.761719 212.992188 54.878906 L 212.992188 36.734375 L 218.640625 36.734375 L 218.640625 54.878906 C 218.640625 58.609375 221.671875 61.644531 225.398438 61.644531 C 229.125 61.644531 232.097656 58.609375 232.097656 54.878906 L 232.097656 36.734375 Z M 237.808594 36.734375 " fill-opacity="1" fill-rule="nonzero"/><g clip-path="url(#6f97b05cdf)"><path fill="#724930" d="M 39.15625 54.058594 C 37.851562 56.03125 35.355469 58.195312 33.375 59.496094 L 21.632812 67.222656 C 21.632812 67.222656 21.640625 67.222656 21.65625 67.230469 L 0.808594 67.230469 L 0.808594 24.152344 C 5.800781 30.707031 19.164062 35.101562 34.191406 40.675781 C 41.648438 43.441406 41.449219 50.597656 39.160156 54.058594 Z M 39.15625 54.058594 " fill-opacity="1" fill-rule="nonzero"/></g><path fill="#724930" d="M 32.675781 15.496094 C 31.253906 16.136719 28.902344 16.816406 25.324219 17.535156 L 50.519531 17.535156 L 50.519531 29.691406 C 51.207031 29.832031 51.890625 29.972656 52.558594 30.109375 L 52.558594 15.492188 L 32.675781 15.492188 Z M 32.675781 15.496094 " fill-opacity="1" fill-rule="nonzero"/><path fill="#724930" d="M 18.210938 22.679688 C 20.109375 23.292969 22.878906 23.984375 26.140625 24.71875 L 43.34375 24.71875 L 43.34375 28.257812 C 44.023438 28.390625 44.707031 28.527344 45.378906 28.660156 L 45.378906 22.675781 L 18.210938 22.675781 Z M 18.210938 22.679688 " fill-opacity="1" fill-rule="nonzero"/><path fill="#724930" d="M 33.414062 26.269531 C 36.128906 26.824219 38.964844 27.390625 41.789062 27.953125 L 41.789062 26.269531 Z M 33.414062 26.269531 " fill-opacity="1" fill-rule="nonzero"/><path fill="#724930" d="M 16.402344 19.085938 C 15.203125 19.40625 13.96875 20.019531 15.109375 21.125 L 46.929688 21.125 L 46.929688 28.972656 C 47.617188 29.109375 48.292969 29.242188 48.964844 29.378906 L 48.964844 19.082031 L 16.402344 19.082031 Z M 16.402344 19.085938 " fill-opacity="1" fill-rule="nonzero"/><path fill="#724930" d="M 32.914062 11.894531 C 33.433594 12.289062 33.859375 12.691406 34.191406 13.097656 C 34.425781 13.371094 34.53125 13.65625 34.488281 13.941406 L 54.109375 13.941406 L 54.109375 30.429688 C 54.804688 30.570312 55.480469 30.714844 56.144531 30.855469 L 56.144531 11.894531 Z M 32.914062 11.894531 " fill-opacity="1" fill-rule="nonzero"/><path fill="#724930" d="M 5.550781 5.191406 C 10.027344 5.644531 13.898438 6.167969 17.230469 6.75 L 61.285156 6.75 L 61.285156 32.011719 C 61.832031 32.140625 62.347656 32.273438 62.835938 32.398438 L 62.835938 5.191406 Z M 5.550781 5.191406 " fill-opacity="1" fill-rule="nonzero"/><path fill="#724930" d="M 30.253906 10.34375 L 57.695312 10.34375 L 57.695312 31.1875 C 58.402344 31.347656 59.085938 31.5 59.734375 31.648438 L 59.734375 8.304688 L 24.410156 8.304688 C 26.792969 8.945312 28.722656 9.628906 30.253906 10.34375 Z M 30.253906 10.34375 " fill-opacity="1" fill-rule="nonzero"/><g clip-path="url(#52fe370378)"><path fill="#8fb0c1" d="M 62.832031 35.757812 L 62.832031 67.386719 L 25.320312 67.308594 C 25.320312 67.308594 41.667969 59.914062 43.21875 49.949219 C 43.632812 47.289062 42.109375 44.019531 40.152344 42.167969 C 37.203125 39.378906 33.984375 38.046875 22.589844 34.449219 C 2.011719 27.953125 0.808594 21.074219 0.808594 21.074219 C 5.550781 26.378906 6.085938 24.398438 3.78125 20.820312 C 0.496094 15.722656 6.460938 15.929688 7.089844 14.246094 C 7.722656 12.5625 4.980469 10.480469 4.675781 10.253906 C 5.183594 10.578125 11.800781 14.832031 8.535156 15.496094 C 2.902344 16.632812 4.734375 19.269531 7.886719 22.433594 C 12.613281 27.183594 23.554688 29.765625 24.925781 30.078125 C 25.015625 30.09375 25.109375 30.085938 25.195312 30.046875 L 25.238281 30.027344 C 25.664062 29.824219 25.925781 29.390625 25.925781 28.9375 C 25.925781 28.875 25.921875 28.808594 25.914062 28.746094 C 25.90625 28.695312 25.785156 28.632812 25.738281 28.621094 C 21.238281 27.414062 10.554688 24.160156 8.644531 20.90625 C 7.753906 19.386719 8.554688 18.113281 9.667969 17.183594 C 11.019531 16.054688 13.066406 16.074219 14.824219 16.144531 C 18.75 16.296875 27.074219 15.761719 25.847656 12.714844 C 24.257812 8.785156 5.546875 6.277344 5.546875 6.277344 C 5.546875 6.277344 27.515625 8.308594 30.074219 12.535156 C 32.621094 16.738281 19.320312 17.367188 15.390625 17.460938 C 14.445312 17.484375 13.503906 17.664062 12.640625 18.050781 C 10.921875 18.816406 9.09375 20.351562 13.542969 22.679688 C 20.222656 26.175781 62.832031 35.761719 62.832031 35.761719 Z M 62.832031 35.757812 " fill-opacity="1" fill-rule="nonzero"/></g><path fill="#ffffff" d="M 62.832031 53.359375 L 62.832031 55.632812 C 61.832031 53.824219 60.773438 52.042969 59.640625 50.316406 C 56.609375 45.71875 52.9375 41.542969 48.195312 38.671875 C 43.605469 35.890625 38.402344 34.355469 33.269531 32.921875 C 32.589844 32.734375 32.878906 31.675781 33.558594 31.863281 C 36.675781 32.730469 39.789062 33.644531 42.796875 34.832031 C 47.617188 36.730469 51.957031 39.445312 55.519531 43.234375 C 58.375 46.269531 60.738281 49.734375 62.832031 53.359375 Z M 62.832031 53.359375 " fill-opacity="1" fill-rule="nonzero"/></svg>
