<svg xmlns="http://www.w3.org/2000/svg" xmlns:xlink="http://www.w3.org/1999/xlink" width="368" zoomAndPan="magnify" viewBox="0 0 276 72.749999" height="97" preserveAspectRatio="xMidYMid meet" version="1.0"><path fill="#587b6c" d="M 95.761719 44.949219 L 86.417969 44.949219 L 86.417969 70.777344 L 80.128906 70.777344 L 80.128906 44.949219 L 70.78125 44.949219 L 70.78125 38.628906 L 95.761719 38.628906 Z M 95.761719 44.949219 " fill-opacity="1" fill-rule="nonzero"/><path fill="#587b6c" d="M 103.386719 38.691406 L 109.679688 38.691406 L 109.679688 70.777344 L 103.386719 70.777344 Z M 103.386719 38.691406 " fill-opacity="1" fill-rule="nonzero"/><path fill="#587b6c" d="M 143.691406 70.777344 L 135.386719 70.777344 L 127.6875 61.941406 L 123.597656 68.199219 L 123.597656 70.777344 L 117.304688 70.777344 L 117.304688 38.691406 L 123.597656 38.691406 L 123.597656 56.726562 L 135.386719 38.691406 L 142.777344 38.691406 L 131.230469 56.421875 Z M 143.691406 70.777344 " fill-opacity="1" fill-rule="nonzero"/><path fill="#587b6c" d="M 183.261719 70.777344 L 176.972656 70.777344 L 175.933594 68.199219 C 173.429688 69.859375 170.433594 70.777344 167.257812 70.777344 C 164.082031 70.777344 161.089844 69.859375 158.644531 68.199219 L 157.609375 70.777344 L 151.316406 70.777344 L 164.144531 38.691406 L 170.433594 38.691406 Z M 173.671875 62.617188 L 169.152344 51.332031 L 167.257812 46.605469 L 160.90625 62.617188 C 162.617188 64.03125 164.816406 64.890625 167.257812 64.890625 C 169.703125 64.890625 171.964844 64.03125 173.671875 62.617188 Z M 173.671875 62.617188 " fill-opacity="1" fill-rule="nonzero"/><path fill="#587b6c" d="M 215.867188 44.949219 L 206.523438 44.949219 L 206.523438 70.777344 L 200.234375 70.777344 L 200.234375 44.949219 L 190.886719 44.949219 L 190.886719 38.628906 L 215.867188 38.628906 Z M 215.867188 44.949219 " fill-opacity="1" fill-rule="nonzero"/><path fill="#587b6c" d="M 249.515625 38.628906 L 249.515625 57.710938 C 249.515625 64.949219 243.652344 70.777344 236.503906 70.777344 C 229.355469 70.777344 223.492188 64.949219 223.492188 57.710938 L 223.492188 38.628906 L 229.417969 38.628906 L 229.417969 57.710938 C 229.417969 61.636719 232.59375 64.824219 236.503906 64.824219 C 240.410156 64.824219 243.527344 61.636719 243.527344 57.710938 L 243.527344 38.628906 Z M 249.515625 38.628906 " fill-opacity="1" fill-rule="nonzero"/><path fill="#724930" d="M 41.230469 56.84375 C 39.859375 58.921875 37.246094 61.195312 35.167969 62.566406 L 22.859375 70.691406 C 22.859375 70.691406 22.867188 70.691406 22.882812 70.699219 L 1.023438 70.699219 L 1.023438 25.394531 C 6.257812 32.289062 20.269531 36.910156 36.027344 42.773438 C 43.84375 45.679688 43.636719 53.207031 41.234375 56.84375 Z M 41.230469 56.84375 " fill-opacity="1" fill-rule="nonzero"/><path fill="#724930" d="M 34.433594 16.289062 C 32.945312 16.96875 30.480469 17.679688 26.726562 18.433594 L 53.144531 18.433594 L 53.144531 31.222656 C 53.867188 31.371094 54.585938 31.515625 55.285156 31.660156 L 55.285156 16.289062 Z M 34.433594 16.289062 " fill-opacity="1" fill-rule="nonzero"/><path fill="#724930" d="M 19.269531 23.84375 C 21.261719 24.492188 24.164062 25.21875 27.585938 25.988281 L 45.621094 25.988281 L 45.621094 29.714844 C 46.335938 29.855469 47.050781 30 47.753906 30.136719 L 47.753906 23.84375 Z M 19.269531 23.84375 " fill-opacity="1" fill-rule="nonzero"/><path fill="#724930" d="M 35.210938 27.625 C 38.054688 28.207031 41.03125 28.804688 43.992188 29.390625 L 43.992188 27.625 Z M 35.210938 27.625 " fill-opacity="1" fill-rule="nonzero"/><path fill="#724930" d="M 17.371094 20.066406 C 16.113281 20.402344 14.824219 21.046875 16.019531 22.210938 L 49.382812 22.210938 L 49.382812 30.464844 C 50.101562 30.609375 50.8125 30.746094 51.515625 30.890625 L 51.515625 20.0625 L 17.371094 20.0625 Z M 17.371094 20.066406 " fill-opacity="1" fill-rule="nonzero"/><path fill="#724930" d="M 34.683594 12.507812 C 35.230469 12.921875 35.679688 13.34375 36.027344 13.769531 C 36.269531 14.058594 36.382812 14.355469 36.335938 14.65625 L 56.910156 14.65625 L 56.910156 31.996094 C 57.636719 32.144531 58.347656 32.296875 59.042969 32.445312 L 59.042969 12.507812 Z M 34.683594 12.507812 " fill-opacity="1" fill-rule="nonzero"/><path fill="#724930" d="M 5.996094 5.457031 C 10.6875 5.933594 14.746094 6.480469 18.242188 7.097656 L 64.433594 7.097656 L 64.433594 33.664062 C 65.007812 33.796875 65.546875 33.933594 66.058594 34.066406 L 66.058594 5.457031 Z M 5.996094 5.457031 " fill-opacity="1" fill-rule="nonzero"/><path fill="#724930" d="M 31.898438 10.871094 L 60.671875 10.871094 L 60.671875 32.796875 C 61.410156 32.960938 62.125 33.121094 62.804688 33.277344 L 62.804688 8.726562 L 25.769531 8.726562 C 28.269531 9.40625 30.292969 10.125 31.898438 10.871094 Z M 31.898438 10.871094 " fill-opacity="1" fill-rule="nonzero"/><path fill="#8fb0c1" d="M 66.054688 37.601562 L 66.054688 70.863281 L 26.726562 70.78125 C 26.726562 70.78125 43.863281 63.007812 45.492188 52.527344 C 45.921875 49.726562 44.328125 46.289062 42.277344 44.339844 C 39.183594 41.410156 35.808594 40.007812 23.863281 36.222656 C 2.285156 29.390625 1.023438 22.15625 1.023438 22.15625 C 5.996094 27.734375 6.558594 25.65625 4.140625 21.894531 C 0.695312 16.53125 6.953125 16.746094 7.609375 14.976562 C 8.273438 13.207031 5.398438 11.019531 5.078125 10.78125 C 5.609375 11.117188 12.550781 15.59375 9.125 16.289062 C 3.222656 17.488281 5.140625 20.261719 8.445312 23.589844 C 13.402344 28.585938 24.875 31.296875 26.308594 31.628906 C 26.40625 31.644531 26.503906 31.636719 26.59375 31.59375 L 26.636719 31.578125 C 27.085938 31.359375 27.359375 30.90625 27.359375 30.425781 C 27.359375 30.363281 27.351562 30.292969 27.34375 30.230469 C 27.339844 30.171875 27.210938 30.109375 27.160156 30.09375 C 22.445312 28.828125 11.242188 25.40625 9.242188 21.984375 C 8.304688 20.386719 9.148438 19.046875 10.3125 18.070312 C 11.730469 16.882812 13.875 16.898438 15.722656 16.972656 C 19.835938 17.132812 28.566406 16.570312 27.277344 13.367188 C 25.609375 9.234375 5.992188 6.597656 5.992188 6.597656 C 5.992188 6.597656 29.023438 8.734375 31.707031 13.175781 C 34.378906 17.601562 20.433594 18.261719 16.316406 18.359375 C 15.320312 18.382812 14.335938 18.574219 13.429688 18.980469 C 11.628906 19.785156 9.710938 21.398438 14.375 23.847656 C 21.382812 27.523438 66.054688 37.605469 66.054688 37.605469 Z M 66.054688 37.601562 " fill-opacity="1" fill-rule="nonzero"/><path fill="#ffffff" d="M 66.054688 56.113281 L 66.054688 58.503906 C 65.007812 56.597656 63.898438 54.726562 62.707031 52.910156 C 59.53125 48.078125 55.679688 43.683594 50.710938 40.667969 C 45.898438 37.742188 40.4375 36.128906 35.058594 34.621094 C 34.34375 34.421875 34.648438 33.308594 35.363281 33.503906 C 38.628906 34.417969 41.890625 35.375 45.046875 36.625 C 50.101562 38.625 54.652344 41.480469 58.386719 45.464844 C 61.382812 48.65625 63.859375 52.300781 66.054688 56.113281 Z M 66.054688 56.113281 " fill-opacity="1" fill-rule="nonzero"/></svg>
